<mxfile host="app.diagrams.net" agent="Mozilla/5.0 (Macintosh; Intel Mac OS X 10_15_7) AppleWebKit/537.36 (KHTML, like Gecko) Chrome/128.0.0.0 Safari/537.36" version="24.7.16">
  <diagram name="Page-1" id="2GbMB_7if2PHJpQEG_Vh">
    <mxGraphModel dx="954" dy="532" grid="1" gridSize="10" guides="1" tooltips="1" connect="1" arrows="1" fold="1" page="1" pageScale="1" pageWidth="850" pageHeight="1100" math="0" shadow="0">
      <root>
        <mxCell id="0" />
        <mxCell id="1" parent="0" />
        <mxCell id="BM8nCDX4NdvX2Di6l5pt-1" value="Windows 10 Client&lt;div&gt;Wasuh Agent&lt;/div&gt;" style="fontColor=#0066CC;verticalAlign=top;verticalLabelPosition=bottom;labelPosition=center;align=center;html=1;outlineConnect=0;fillColor=#CCCCCC;strokeColor=#6881B3;gradientColor=none;gradientDirection=north;strokeWidth=2;shape=mxgraph.networks.pc;" vertex="1" parent="1">
          <mxGeometry x="380" y="440" width="80" height="50" as="geometry" />
        </mxCell>
        <mxCell id="BM8nCDX4NdvX2Di6l5pt-14" style="edgeStyle=orthogonalEdgeStyle;rounded=0;orthogonalLoop=1;jettySize=auto;html=1;shape=link;fillColor=#f5f5f5;strokeColor=#666666;" edge="1" parent="1" source="BM8nCDX4NdvX2Di6l5pt-2" target="BM8nCDX4NdvX2Di6l5pt-3">
          <mxGeometry relative="1" as="geometry" />
        </mxCell>
        <mxCell id="BM8nCDX4NdvX2Di6l5pt-2" value="Router" style="sketch=0;points=[[0.5,0,0],[1,0.5,0],[0.5,1,0],[0,0.5,0],[0.145,0.145,0],[0.8555,0.145,0],[0.855,0.8555,0],[0.145,0.855,0]];verticalLabelPosition=bottom;html=1;verticalAlign=top;aspect=fixed;align=center;pointerEvents=1;shape=mxgraph.cisco19.rect;prIcon=router;fillColor=#FAFAFA;strokeColor=#005073;" vertex="1" parent="1">
          <mxGeometry x="395" y="320" width="50" height="50" as="geometry" />
        </mxCell>
        <mxCell id="BM8nCDX4NdvX2Di6l5pt-15" style="edgeStyle=orthogonalEdgeStyle;rounded=0;orthogonalLoop=1;jettySize=auto;html=1;entryX=1;entryY=0.75;entryDx=0;entryDy=0;shape=link;" edge="1" parent="1" source="BM8nCDX4NdvX2Di6l5pt-3" target="BM8nCDX4NdvX2Di6l5pt-5">
          <mxGeometry relative="1" as="geometry" />
        </mxCell>
        <mxCell id="BM8nCDX4NdvX2Di6l5pt-16" value="2. Receive Events" style="edgeLabel;html=1;align=center;verticalAlign=middle;resizable=0;points=[];" vertex="1" connectable="0" parent="BM8nCDX4NdvX2Di6l5pt-15">
          <mxGeometry x="0.4448" y="1" relative="1" as="geometry">
            <mxPoint as="offset" />
          </mxGeometry>
        </mxCell>
        <mxCell id="BM8nCDX4NdvX2Di6l5pt-37" style="rounded=0;orthogonalLoop=1;jettySize=auto;html=1;shape=link;fillColor=#f8cecc;strokeColor=#b85450;width=-2;" edge="1" parent="1" source="BM8nCDX4NdvX2Di6l5pt-3" target="BM8nCDX4NdvX2Di6l5pt-6">
          <mxGeometry relative="1" as="geometry">
            <Array as="points">
              <mxPoint x="320" y="170" />
            </Array>
          </mxGeometry>
        </mxCell>
        <mxCell id="BM8nCDX4NdvX2Di6l5pt-3" value="Internet" style="image;aspect=fixed;perimeter=ellipsePerimeter;html=1;align=center;shadow=0;dashed=0;spacingTop=3;image=img/lib/active_directory/internet_cloud.svg;" vertex="1" parent="1">
          <mxGeometry x="395" y="210" width="50" height="31.5" as="geometry" />
        </mxCell>
        <mxCell id="BM8nCDX4NdvX2Di6l5pt-4" value="TheHive" style="image;aspect=fixed;perimeter=ellipsePerimeter;html=1;align=center;shadow=0;dashed=0;spacingTop=3;image=img/lib/active_directory/internet_cloud.svg;" vertex="1" parent="1">
          <mxGeometry x="600" y="210" width="50" height="31.5" as="geometry" />
        </mxCell>
        <mxCell id="BM8nCDX4NdvX2Di6l5pt-19" style="rounded=0;orthogonalLoop=1;jettySize=auto;html=1;entryX=0;entryY=0.5;entryDx=0;entryDy=0;shape=link;fillColor=#dae8fc;strokeColor=#6c8ebf;" edge="1" parent="1" source="BM8nCDX4NdvX2Di6l5pt-5" target="BM8nCDX4NdvX2Di6l5pt-6">
          <mxGeometry relative="1" as="geometry" />
        </mxCell>
        <mxCell id="BM8nCDX4NdvX2Di6l5pt-20" value="3. Send Alerts" style="edgeLabel;html=1;align=center;verticalAlign=middle;resizable=0;points=[];" vertex="1" connectable="0" parent="BM8nCDX4NdvX2Di6l5pt-19">
          <mxGeometry x="-0.0155" y="-1" relative="1" as="geometry">
            <mxPoint x="-1" as="offset" />
          </mxGeometry>
        </mxCell>
        <mxCell id="BM8nCDX4NdvX2Di6l5pt-5" value="Wazuh Manager" style="image;aspect=fixed;perimeter=ellipsePerimeter;html=1;align=center;shadow=0;dashed=0;spacingTop=3;image=img/lib/active_directory/internet_cloud.svg;" vertex="1" parent="1">
          <mxGeometry x="80" y="200" width="50" height="31.5" as="geometry" />
        </mxCell>
        <mxCell id="BM8nCDX4NdvX2Di6l5pt-22" style="edgeStyle=orthogonalEdgeStyle;rounded=0;orthogonalLoop=1;jettySize=auto;html=1;entryX=0.5;entryY=0;entryDx=0;entryDy=0;shape=link;fillColor=#d5e8d4;strokeColor=#82b366;" edge="1" parent="1" source="BM8nCDX4NdvX2Di6l5pt-6" target="BM8nCDX4NdvX2Di6l5pt-3">
          <mxGeometry relative="1" as="geometry" />
        </mxCell>
        <mxCell id="BM8nCDX4NdvX2Di6l5pt-23" value="4. Enrich IOCs" style="edgeLabel;html=1;align=center;verticalAlign=middle;resizable=0;points=[];" vertex="1" connectable="0" parent="BM8nCDX4NdvX2Di6l5pt-22">
          <mxGeometry x="0.1769" y="2" relative="1" as="geometry">
            <mxPoint x="-12" as="offset" />
          </mxGeometry>
        </mxCell>
        <mxCell id="BM8nCDX4NdvX2Di6l5pt-24" style="rounded=0;orthogonalLoop=1;jettySize=auto;html=1;entryX=0.5;entryY=0;entryDx=0;entryDy=0;shape=link;fillColor=#dae8fc;strokeColor=#6c8ebf;" edge="1" parent="1" source="BM8nCDX4NdvX2Di6l5pt-6" target="BM8nCDX4NdvX2Di6l5pt-4">
          <mxGeometry relative="1" as="geometry" />
        </mxCell>
        <mxCell id="BM8nCDX4NdvX2Di6l5pt-25" value="5. Send Alerts" style="edgeLabel;html=1;align=center;verticalAlign=middle;resizable=0;points=[];" vertex="1" connectable="0" parent="BM8nCDX4NdvX2Di6l5pt-24">
          <mxGeometry x="-0.0336" y="-1" relative="1" as="geometry">
            <mxPoint as="offset" />
          </mxGeometry>
        </mxCell>
        <mxCell id="BM8nCDX4NdvX2Di6l5pt-28" style="rounded=0;orthogonalLoop=1;jettySize=auto;html=1;entryX=1;entryY=0.5;entryDx=0;entryDy=0;fillColor=#ffe6cc;strokeColor=#d79b00;shape=link;" edge="1" parent="1" source="BM8nCDX4NdvX2Di6l5pt-6" target="BM8nCDX4NdvX2Di6l5pt-3">
          <mxGeometry relative="1" as="geometry">
            <Array as="points">
              <mxPoint x="480" y="150" />
            </Array>
          </mxGeometry>
        </mxCell>
        <mxCell id="BM8nCDX4NdvX2Di6l5pt-29" value="6. Send Email" style="edgeLabel;html=1;align=center;verticalAlign=middle;resizable=0;points=[];" vertex="1" connectable="0" parent="BM8nCDX4NdvX2Di6l5pt-28">
          <mxGeometry x="0.3554" y="3" relative="1" as="geometry">
            <mxPoint as="offset" />
          </mxGeometry>
        </mxCell>
        <mxCell id="BM8nCDX4NdvX2Di6l5pt-38" style="edgeStyle=orthogonalEdgeStyle;rounded=0;orthogonalLoop=1;jettySize=auto;html=1;entryX=0.25;entryY=0;entryDx=0;entryDy=0;fillColor=#f8cecc;strokeColor=#b85450;shape=link;" edge="1" parent="1" source="BM8nCDX4NdvX2Di6l5pt-6" target="BM8nCDX4NdvX2Di6l5pt-5">
          <mxGeometry relative="1" as="geometry" />
        </mxCell>
        <mxCell id="BM8nCDX4NdvX2Di6l5pt-39" value="8. Send Response Action" style="edgeLabel;html=1;align=center;verticalAlign=middle;resizable=0;points=[];" vertex="1" connectable="0" parent="BM8nCDX4NdvX2Di6l5pt-38">
          <mxGeometry x="0.5363" y="-1" relative="1" as="geometry">
            <mxPoint y="-1" as="offset" />
          </mxGeometry>
        </mxCell>
        <mxCell id="BM8nCDX4NdvX2Di6l5pt-6" value="Shuffle" style="image;aspect=fixed;perimeter=ellipsePerimeter;html=1;align=center;shadow=0;dashed=0;spacingTop=3;image=img/lib/active_directory/internet_cloud.svg;" vertex="1" parent="1">
          <mxGeometry x="395" y="40" width="50" height="31.5" as="geometry" />
        </mxCell>
        <mxCell id="BM8nCDX4NdvX2Di6l5pt-30" style="rounded=0;orthogonalLoop=1;jettySize=auto;html=1;entryX=1;entryY=1;entryDx=0;entryDy=0;shape=link;fillColor=#ffe6cc;strokeColor=#d79b00;" edge="1" parent="1" source="BM8nCDX4NdvX2Di6l5pt-11" target="BM8nCDX4NdvX2Di6l5pt-3">
          <mxGeometry relative="1" as="geometry" />
        </mxCell>
        <mxCell id="BM8nCDX4NdvX2Di6l5pt-31" value="7. Send &amp;amp; Receive Email" style="edgeLabel;html=1;align=center;verticalAlign=middle;resizable=0;points=[];" vertex="1" connectable="0" parent="BM8nCDX4NdvX2Di6l5pt-30">
          <mxGeometry x="-0.2599" y="2" relative="1" as="geometry">
            <mxPoint as="offset" />
          </mxGeometry>
        </mxCell>
        <mxCell id="BM8nCDX4NdvX2Di6l5pt-34" style="rounded=0;orthogonalLoop=1;jettySize=auto;html=1;entryX=1;entryY=1;entryDx=0;entryDy=0;shape=link;fillColor=#f8cecc;strokeColor=#b85450;" edge="1" parent="1" source="BM8nCDX4NdvX2Di6l5pt-11" target="BM8nCDX4NdvX2Di6l5pt-3">
          <mxGeometry relative="1" as="geometry">
            <Array as="points">
              <mxPoint x="560" y="350" />
            </Array>
          </mxGeometry>
        </mxCell>
        <mxCell id="BM8nCDX4NdvX2Di6l5pt-35" value="8. Send Response Action" style="edgeLabel;html=1;align=center;verticalAlign=middle;resizable=0;points=[];" vertex="1" connectable="0" parent="BM8nCDX4NdvX2Di6l5pt-34">
          <mxGeometry x="-0.0811" y="1" relative="1" as="geometry">
            <mxPoint as="offset" />
          </mxGeometry>
        </mxCell>
        <mxCell id="BM8nCDX4NdvX2Di6l5pt-11" value="SOC Analyst" style="fontColor=#0066CC;verticalAlign=top;verticalLabelPosition=bottom;labelPosition=center;align=center;html=1;outlineConnect=0;fillColor=#CCCCCC;strokeColor=#6881B3;gradientColor=none;gradientDirection=north;strokeWidth=2;shape=mxgraph.networks.pc;" vertex="1" parent="1">
          <mxGeometry x="720" y="330" width="80" height="50" as="geometry" />
        </mxCell>
        <mxCell id="BM8nCDX4NdvX2Di6l5pt-12" style="edgeStyle=orthogonalEdgeStyle;rounded=0;orthogonalLoop=1;jettySize=auto;html=1;entryX=0.5;entryY=1;entryDx=0;entryDy=0;entryPerimeter=0;startArrow=classic;startFill=1;shape=link;fillColor=#f5f5f5;strokeColor=#666666;" edge="1" parent="1" source="BM8nCDX4NdvX2Di6l5pt-1" target="BM8nCDX4NdvX2Di6l5pt-2">
          <mxGeometry relative="1" as="geometry" />
        </mxCell>
        <mxCell id="BM8nCDX4NdvX2Di6l5pt-13" value="1. Send Email" style="edgeLabel;html=1;align=center;verticalAlign=middle;resizable=0;points=[];" vertex="1" connectable="0" parent="BM8nCDX4NdvX2Di6l5pt-12">
          <mxGeometry x="-0.1143" y="-1" relative="1" as="geometry">
            <mxPoint as="offset" />
          </mxGeometry>
        </mxCell>
        <mxCell id="BM8nCDX4NdvX2Di6l5pt-42" style="rounded=0;orthogonalLoop=1;jettySize=auto;html=1;entryX=0;entryY=0.85;entryDx=0;entryDy=0;entryPerimeter=0;shape=link;fillColor=#f8cecc;strokeColor=#b85450;" edge="1" parent="1" source="BM8nCDX4NdvX2Di6l5pt-5" target="BM8nCDX4NdvX2Di6l5pt-1">
          <mxGeometry relative="1" as="geometry" />
        </mxCell>
        <mxCell id="BM8nCDX4NdvX2Di6l5pt-43" value="9. Perform Responsive Action" style="edgeLabel;html=1;align=center;verticalAlign=middle;resizable=0;points=[];" vertex="1" connectable="0" parent="BM8nCDX4NdvX2Di6l5pt-42">
          <mxGeometry x="-0.004" relative="1" as="geometry">
            <mxPoint as="offset" />
          </mxGeometry>
        </mxCell>
        <mxCell id="BM8nCDX4NdvX2Di6l5pt-44" value="Windows 10&lt;div&gt;Send Events&amp;nbsp;&lt;/div&gt;" style="text;html=1;align=center;verticalAlign=middle;resizable=0;points=[];autosize=1;strokeColor=none;fillColor=none;" vertex="1" parent="1">
          <mxGeometry y="760" width="90" height="40" as="geometry" />
        </mxCell>
        <mxCell id="BM8nCDX4NdvX2Di6l5pt-45" value="" style="edgeStyle=none;orthogonalLoop=1;jettySize=auto;html=1;rounded=0;" edge="1" parent="1">
          <mxGeometry width="100" relative="1" as="geometry">
            <mxPoint x="95" y="779.5" as="sourcePoint" />
            <mxPoint x="160" y="780" as="targetPoint" />
            <Array as="points" />
          </mxGeometry>
        </mxCell>
        <mxCell id="BM8nCDX4NdvX2Di6l5pt-46" value="Wazuh Manager&lt;div&gt;Trigger Alerts &amp;amp; Performs Actions&lt;/div&gt;" style="text;html=1;align=center;verticalAlign=middle;resizable=0;points=[];autosize=1;strokeColor=none;fillColor=none;" vertex="1" parent="1">
          <mxGeometry x="160" y="750" width="200" height="40" as="geometry" />
        </mxCell>
        <mxCell id="BM8nCDX4NdvX2Di6l5pt-53" value="" style="edgeStyle=orthogonalEdgeStyle;rounded=0;orthogonalLoop=1;jettySize=auto;html=1;" edge="1" parent="1" source="BM8nCDX4NdvX2Di6l5pt-50" target="BM8nCDX4NdvX2Di6l5pt-52">
          <mxGeometry relative="1" as="geometry" />
        </mxCell>
        <mxCell id="BM8nCDX4NdvX2Di6l5pt-55" value="" style="edgeStyle=orthogonalEdgeStyle;rounded=0;orthogonalLoop=1;jettySize=auto;html=1;" edge="1" parent="1" source="BM8nCDX4NdvX2Di6l5pt-50" target="BM8nCDX4NdvX2Di6l5pt-54">
          <mxGeometry relative="1" as="geometry" />
        </mxCell>
        <mxCell id="BM8nCDX4NdvX2Di6l5pt-57" value="" style="edgeStyle=orthogonalEdgeStyle;rounded=0;orthogonalLoop=1;jettySize=auto;html=1;" edge="1" parent="1" source="BM8nCDX4NdvX2Di6l5pt-50" target="BM8nCDX4NdvX2Di6l5pt-56">
          <mxGeometry relative="1" as="geometry" />
        </mxCell>
        <mxCell id="BM8nCDX4NdvX2Di6l5pt-50" value="Shuffle&lt;div&gt;Recieve Wazuh Alerts &amp;amp; Send Responsive Actions&lt;/div&gt;" style="text;html=1;align=center;verticalAlign=middle;resizable=0;points=[];autosize=1;strokeColor=none;fillColor=none;" vertex="1" parent="1">
          <mxGeometry x="430" y="750" width="290" height="40" as="geometry" />
        </mxCell>
        <mxCell id="BM8nCDX4NdvX2Di6l5pt-51" value="" style="edgeStyle=none;orthogonalLoop=1;jettySize=auto;html=1;rounded=0;" edge="1" parent="1">
          <mxGeometry width="100" relative="1" as="geometry">
            <mxPoint x="360" y="770" as="sourcePoint" />
            <mxPoint x="430" y="769.5" as="targetPoint" />
            <Array as="points" />
          </mxGeometry>
        </mxCell>
        <mxCell id="BM8nCDX4NdvX2Di6l5pt-52" value="OSINT&lt;div&gt;Enrich IOCs&lt;/div&gt;" style="text;html=1;align=center;verticalAlign=middle;resizable=0;points=[];autosize=1;strokeColor=none;fillColor=none;" vertex="1" parent="1">
          <mxGeometry x="530" y="630" width="90" height="40" as="geometry" />
        </mxCell>
        <mxCell id="BM8nCDX4NdvX2Di6l5pt-54" value="TheHive&amp;nbsp;&lt;div&gt;Create alert in case management&lt;/div&gt;" style="text;html=1;align=center;verticalAlign=middle;resizable=0;points=[];autosize=1;strokeColor=none;fillColor=none;" vertex="1" parent="1">
          <mxGeometry x="475" y="870" width="200" height="40" as="geometry" />
        </mxCell>
        <mxCell id="BM8nCDX4NdvX2Di6l5pt-56" value="Email&lt;div&gt;Send Email &amp;amp; Responsive Actions&lt;/div&gt;" style="text;html=1;align=center;verticalAlign=middle;resizable=0;points=[];autosize=1;strokeColor=none;fillColor=none;" vertex="1" parent="1">
          <mxGeometry x="845" y="750" width="200" height="40" as="geometry" />
        </mxCell>
      </root>
    </mxGraphModel>
  </diagram>
</mxfile>
